<svg version="1.2" xmlns="http://www.w3.org/2000/svg" viewBox="0 0 1152 360" width="1152" height="360">
	<title>ieee-logo</title>
	<style>
		.s0 { fill: #ffffff } 
	</style>
	<g id="Layer 1">
		<path id="&lt;Path&gt;" class="s0" d="m383.8 309.4v-252.6h69.9v252.6z"/>
		<path id="&lt;Path&gt;" class="s0" d="m490.4 309.4v-252.6h192.5v49h-122.5v52.1h112.7v49h-112.7v53.5h122.5v49z"/>
		<path id="&lt;Path&gt;" class="s0" d="m722.1 309.4v-252.6h192.3v49h-122.4v52.1h112.6v49h-112.6v53.5h122.4v49z"/>
		<path id="&lt;Path&gt;" class="s0" d="m953.6 309.4v-252.6h192.4v49h-122.4v52.1h112.6v49h-112.6v53.5h122.4v49z"/>
		<path id="&lt;Compound Path&gt;" fill-rule="evenodd" class="s0" d="m224.6 73.6l27.8 29c25.1 24.9 51.7 46.9 80.3 66.4l0.9 0.2c3.7 2.3 6.2 6.5 6.6 10.7-0.2 9.2-10.8 11.1-16.4 16.1-55.6 40.3-105.3 90.2-144.5 145.7l-3.2 3.2c-3.2 2-7.3 1.2-10.6 0-4.3-1.4-4.7-6-7.5-8.9-8.6-13.5-19.7-26.1-29.2-38.7-5.6-5.6-10.2-11.6-15.9-17.6-32.3-35.4-68.5-66.4-106.5-92.5-2.6-2.7-4.9-6.3-3.7-10.6 1.2-4.8 6.8-7.7 10.5-10.6 47.4-32.5 90.8-74.9 127.4-120.3l22.9-29.8c3-2.3 7-4.2 10.7-2.6 1.8 0.5 3.7 2 5.2 3l12.7 17.8c10.4 13.2 21.3 27 32.5 39.5zm-96.3 10.4c-0.9 0.5-1.9 1.7-2.4 2.2-23.8 21.3-47.4 44.5-66.6 69-5.4 7.1-11.1 14-13.2 22.3-0.1 4.5 0.6 8.7 3 12.1 16.3 24.3 37.8 47.4 59.3 67.3 18.5 16.6 36.3 34.7 57.5 45.8 6.9 3.2 14.8-0.6 20.6-4.7 28.7-20.2 54.4-45.5 78.7-71.7 11.3-13.8 24.1-26.5 30.5-42.3 1.7-6.2-1-11.6-4.1-16.3-19-27.1-42.1-52.8-67-75.9l-1.6-0.9c-9-8.7-19.2-17.2-29.1-24.7-9.3-8-23.4-15.2-34.5-6.6-10.7 7.7-20.9 15.5-31.1 24.4zm35.2-17.5c11.4-7.8 21.6 3.1 30.4 9.3 34.2 27.5 66.4 59 91 94.5 3.1 4.6 4.5 11.7 1.7 16.9-6.3 10.6-14.9 20.3-23.1 30.2v0.5c-20.3 21.6-41.7 43.9-64.9 62.2-11.3 6.9-21.7 21.9-36.3 12.6-33.2-24.3-64.9-54.4-91.8-86.7-4.6-7.2-11.7-13-14.9-21-4.4-11 5.3-18.8 10.9-27 27.5-33.9 61.5-67.1 97-91.5zm7.2 22.3l-3.1 9.9-15.5 44.4c3.9 0.4 8.7 0 12.5 0.4v0.4l-2.3 50.2 0.4 0.5c5 0.5 11.1 0.8 16.2-0.1v-0.8l-2-48.7 0.3-1.7 13.6-0.2c-6.8-18-13.4-36.1-19.7-54.3zm-52.8 69.6c-8.7 4.3-21.5 10.9-20.1 22.8 1.9 6.5 8.9 10.7 14.5 13.4 30.9 13.6 71.8 14.1 104.4 3.9 8-3.1 18.8-7.6 20.3-17.4-0.1-8.1-8.7-13.3-14.9-16.4v-0.4c2.1-0.8 4.6-1.6 6.8-1.8v-0.2c-10.9-2-21.4-4.8-32-7.6 2.1 4.6 3.5 9.5 5.2 14.3 3.2-1 6.5-1.8 9.9-2.2 5.6 2.1 13.5 5.2 14.3 12.2 0.6 6.5-6.5 9.7-11 12.3-23.9 8.7-50.7 9.6-75.6 2.9-6.9-2.1-16.8-4.9-17.7-13.7 4.9-11.5 17.5-13.9 28.1-16.7-5.5-3.5-11-6.6-16.2-10.5-5.7 0.4-10.9 2.8-16 5.1zm44.1 50c-0.9 17.9-1.2 34.4-2.5 52.3 7.1 0.6 15 1.2 22.6 0.1l-2.3-49.8-0.4-2.4c-5.7 0.2-11.1 0.5-17.4-0.2z"/>
		<g id="&lt;Group&gt;">
			<path id="&lt;Compound Path&gt;" fill-rule="evenodd" class="s0" d="m239.6 322.2c0 7.4-5.6 11.7-11.8 11.7-6.2 0-11.8-4.3-11.8-11.7 0-7.4 5.6-11.7 11.8-11.7 6.2 0 11.8 4.3 11.8 11.7zm-3.4 0c0-5.4-3.8-9-8.4-9-4.6 0-8.4 3.6-8.4 9 0 5.4 3.8 9 8.4 9 4.6 0 8.4-3.6 8.4-9zm-6.2 0.8l3.3 5.5h-3.2l-2.9-5.3h-1.3v5.3h-2.7v-12.6h4.7c3.3 0 5.2 0.9 5.2 3.8 0 2.3-1.4 3.1-3.1 3.3zm0.2-3.6c0-1.3-1.4-1.4-2.4-1.4h-1.9v3h2.4c1.2 0 1.9-0.2 1.9-1.6z"/>
		</g>
	</g>
</svg>