<svg version="1.2" xmlns="http://www.w3.org/2000/svg" viewBox="0 0 429 408" width="429" height="408">
	<title>IEEE-CS_LogoTM-orange-ai</title>
	<style>
		.s0 { fill: #f9a319 } 
	</style>
	<g id="Layer 1">
		<g id="&lt;Group&gt;">
			<g id="&lt;Group&gt;">
			</g>
			<g id="&lt;Group&gt;">
			</g>
		</g>
		<g id="&lt;Group&gt;">
			<g id="&lt;Group&gt;">
				<g id="&lt;Group&gt;">
					<g id="&lt;Group&gt;">
						<path id="&lt;Compound Path&gt;" fill-rule="evenodd" class="s0" d="m428.6 196.7c0 108.3-96 196-214.3 196-118.3 0-214.3-87.7-214.3-196 0-108.2 96-195.9 214.3-195.9 118.3 0 214.3 87.7 214.3 195.9zm-66.6 2.7c0-52.1-41.4-84.7-115-91.8v-19.8c0-18.2 0.5-33.4 1.3-40.8l0.1-0.8-0.3-0.8c-1.4-4.7-6-6.7-9.9-6.7-1.9 0-4.9 0.9-11.9 3.2-7.1 2.3-16.8 5.5-27.3 7.9-19.8 4.4-39.2 7.9-54.5 9.7l-0.9 0.1-0.8 0.4c-2.9 1.8-4.5 5.6-4.3 10 0.3 4.4 2.5 8 5.6 9.5l21 2.4c15 1.6 16.8 3.7 17 23.6 0 0.7 0.5 21.2 0.5 21.9 0.6 30.4 0 73.3-0.5 100.3v29.1c9.3 1.8 20.4 3 33.1 3 12.1 0 22.8-1.1 31.8-2.8v-125.4c7.8 1.4 15 3.3 21.1 5.8l1.9 0.7c13.9 5.2 23.4 15 27.7 28.4l0.1 0.5c2.5 5.9 3.8 17 3.8 31.3v0.6 0.5c0 14.3-1.3 25.4-3.8 31.3l-0.1 0.5c-2.8 8.9-8 16.1-15.3 21.6-11.9 10.6-39.7 16-67.2 16-25.2 0-50.6-4.5-63.8-13.4-9.3-5.6-15.8-13.8-19.1-24.2l-0.1-0.5c-2.5-5.9-3.8-17-3.8-31.3v-0.5-0.6c0-14.3 1.3-25.4 3.8-31.3l0.1-0.5c4.2-13.4 13.8-23.2 27.9-28.5l1.8-0.7c3.5-1.3 7.4-2.5 11.5-3.6-0.1-9.9-0.3-18.5-0.5-25-67.5 9-105.5 40.9-105.5 90.7 0 49.4 44 83.6 114.6 91.5-0.1 25.7-1.9 26.6-19.8 27.8l-18.5 1.1-0.8 0.4c-4 2.2-5.2 7.2-4.7 11.3 0.6 4.4 3.1 7.7 6.6 8.5l0.5 0.1h0.6c14.8-0.6 40-1 69.4-1 27.8 0 53.1 0.4 67.7 1h0.6l0.5-0.1c3.5-0.8 6-4.1 6.6-8.5 0.5-4.1-0.7-9.1-4.7-11.3l-0.8-0.4-18.5-1.1c-17.9-1.2-19.8-2.1-19.8-27.7 70.9-7.9 115-42.1 115-91.6z"/>
					</g>
				</g>
			</g>
			<g id="&lt;Group&gt;">
				<path id="&lt;Compound Path&gt;" class="s0" d="m338.7 380.6h21.1v4.1h-8.3v23.4h-4.6v-23.4h-8.2zm25.2 0h5.4l9.1 18.5 8.9-18.5h5.5v27.4h-4.2v-20.9l-8.7 18.1h-3.1l-8.6-18.1v20.9h-4.3z"/>
			</g>
		</g>
	</g>
</svg>